HIERARCHY
ROOT Hips
{
	OFFSET 46.625801 6.466676 85.649696
	CHANNELS 6 Xposition Yposition Zposition Xrotation Yrotation Zrotation
	JOINT spine
	{
		OFFSET 0.000000 -0.393702 6.846367
		CHANNELS 3 Xrotation Yrotation Zrotation
		JOINT spine1
		{
			OFFSET 0.000000 -0.000001 9.496208
			CHANNELS 3 Xrotation Yrotation Zrotation
			JOINT spine2
			{
				OFFSET 0.000000 -0.000001 9.099091
				CHANNELS 3 Xrotation Yrotation Zrotation
				JOINT Neck
				{
					OFFSET 0.000000 -1.113784 23.361198
					CHANNELS 3 Xrotation Yrotation Zrotation
					JOINT Head
					{
						OFFSET 0.000000 -0.000001 7.058014
						CHANNELS 3 Xrotation Yrotation Zrotation
						End Site
						{
							OFFSET 0.000000 5.634187 17.084396
						}
					}
				}
				JOINT RightShoulder
				{
					OFFSET -3.831360 0.533490 9.826309
					CHANNELS 3 Xrotation Yrotation Zrotation
					JOINT RightArm
					{
						OFFSET 0.000000 -0.000002 12.888100
						CHANNELS 3 Xrotation Yrotation Zrotation
						JOINT RightArmRoll
						{
							OFFSET 0.000000 -0.000001 6.506165
							CHANNELS 3 Xrotation Yrotation Zrotation
							JOINT RightForeArm
							{
								OFFSET 0.000000 -0.000003 18.950104
								CHANNELS 3 Xrotation Yrotation Zrotation
								JOINT RightForeArmRoll
								{
									OFFSET 0.000000 -0.000001 7.300919
									CHANNELS 3 Xrotation Yrotation Zrotation
									JOINT RightHand
									{
										OFFSET 0.000000 -0.000002 14.651398
										CHANNELS 3 Xrotation Yrotation Zrotation
										End Site
										{
											OFFSET 0.000000 0.000000 0.100006
										}
									}
								}
							}
						}
					}
				}
				JOINT LeftShoulder
				{
					OFFSET 3.831360 0.533490 9.826309
					CHANNELS 3 Xrotation Yrotation Zrotation
					JOINT LeftArm
					{
						OFFSET 0.000000 -0.000002 12.888100
						CHANNELS 3 Xrotation Yrotation Zrotation
						JOINT LeftArmRoll
						{
							OFFSET 0.000000 -0.000001 6.506165
							CHANNELS 3 Xrotation Yrotation Zrotation
							JOINT LeftForeArm
							{
								OFFSET 0.000000 -0.000003 18.950104
								CHANNELS 3 Xrotation Yrotation Zrotation
								JOINT LeftForeArmRoll
								{
									OFFSET 0.000000 -0.000001 7.300919
									CHANNELS 3 Xrotation Yrotation Zrotation
									JOINT LeftHand
									{
										OFFSET 0.000000 -0.000002 14.651398
										CHANNELS 3 Xrotation Yrotation Zrotation
										End Site
										{
											OFFSET 0.000000 0.000000 0.100006
										}
									}
								}
							}
						}
					}
				}
			}
		}
	}
	JOINT RightUpLeg
	{
		OFFSET -6.068371 0.933477 -1.112778
		CHANNELS 3 Xrotation Yrotation Zrotation
		JOINT RightUpLegRoll
		{
			OFFSET 0.000000 -0.000003 17.179604
			CHANNELS 3 Xrotation Yrotation Zrotation
			JOINT RightLeg
			{
				OFFSET 0.000000 0.000004 -21.274300
				CHANNELS 3 Xrotation Yrotation Zrotation
				JOINT RightLegRoll
				{
					OFFSET 0.000000 -0.000004 21.343903
					CHANNELS 3 Xrotation Yrotation Zrotation
					JOINT RightFoot
					{
						OFFSET 0.000000 -0.000003 17.765198
						CHANNELS 3 Xrotation Yrotation Zrotation
						JOINT RightToeBase
						{
							OFFSET 0.000000 -0.000002 14.850807
							CHANNELS 3 Xrotation Yrotation Zrotation
							End Site
							{
								OFFSET 0.006294 0.829004 7.192123
							}
						}
					}
				}
			}
		}
	}
	JOINT LeftUpLeg
	{
		OFFSET 6.068371 0.933477 -1.112778
		CHANNELS 3 Xrotation Yrotation Zrotation
		JOINT LeftUpLegRoll
		{
			OFFSET 0.000000 -0.000003 17.179703
			CHANNELS 3 Xrotation Yrotation Zrotation
			JOINT LeftLeg
			{
				OFFSET 0.000000 -0.000003 21.274200
				CHANNELS 3 Xrotation Yrotation Zrotation
				JOINT LeftLegRoll
				{
					OFFSET 0.000000 -0.000003 21.541206
					CHANNELS 3 Xrotation Yrotation Zrotation
					JOINT LeftFoot
					{
						OFFSET 0.000000 -0.000003 17.567902
						CHANNELS 3 Xrotation Yrotation Zrotation
						JOINT LeftToeBase
						{
							OFFSET 0.000000 -0.000002 14.850800
							CHANNELS 3 Xrotation Yrotation Zrotation
							End Site
							{
								OFFSET -0.028210 0.829004 7.192123
							}
						}
					}
				}
			}
		}
	}
}
MOTION
Frames: 7
Frame Time: 0.041667
49.893501 2.471049 82.738495 9.609764 -2.108965 7.447588 -2.081101 -1.164282 0.904384 -0.141141 -2.352104 1.778337 1.504174 -2.330638 1.806390 -20.048943 26.046107 -0.705772 8.540300 -21.861726 -6.908840 -8.406135 -32.498522 -7.703431 -87.075835 -153.888397 -96.309171 0.000001 -0.000001 0.000005 31.333732 -13.607283 4.449039 -0.000001 0.000006 -3.015049 -5.000251 -7.998819 0.000148 -18.500740 55.127734 21.849864 -102.226970 155.313611 125.354680 0.000001 -0.000009 -0.000002 57.266686 13.643789 -7.637745 0.000003 -0.000008 3.011089 -5.000212 7.998753 -0.000168 -32.547275 -176.622408 1.304846 -179.999991 0.000005 -0.916006 137.413912 -9.203408 -3.074627 0.000002 -0.000002 0.458235 84.795788 8.796802 -7.635025 25.457254 -7.353857 0.000930 -31.830256 -177.891731 1.575821 -0.000003 -0.000004 -1.053959 -43.663002 4.211794 2.124921 -0.000004 -0.000006 -0.706555 83.776368 -7.012729 -0.103621 27.506125 7.347810 -0.263970 
49.857498 2.489737 82.792099 9.621024 -2.072759 7.452090 -2.098760 -1.160011 0.908618 -0.176441 -2.343959 1.786554 1.468867 -2.322398 1.814516 -20.018965 25.886817 -0.782265 8.525114 -21.725319 -6.944231 -8.438258 -32.299374 -7.727621 -87.428211 -153.949500 -96.682769 0.000002 -0.000000 0.000006 31.472419 -13.542063 4.454276 -0.000000 0.000005 -3.015044 -5.000251 -7.998822 0.000150 -18.257748 54.744366 21.555963 -102.672797 155.553952 125.461450 0.000001 -0.000009 -0.000002 57.076520 13.663761 -7.618675 0.000003 -0.000010 3.011090 -5.000212 7.998753 -0.000166 -32.531054 -176.635290 1.319159 -179.999991 0.000005 -0.914995 137.519643 -9.252644 -3.081699 0.000002 -0.000003 0.449888 84.721906 8.813087 -7.666973 25.457251 -7.353867 0.000914 -31.803837 -177.944705 1.554584 -0.000005 -0.000004 -1.052710 -43.560805 4.212246 2.125630 -0.000005 -0.000006 -0.704319 83.764655 -7.011578 -0.110082 27.454196 7.347870 -0.257298 
49.853600 2.513968 82.776497 9.636908 -2.035324 7.457230 -2.117113 -1.155521 0.911795 -0.213143 -2.335375 1.792653 1.432157 -2.313738 1.820500 -20.006498 25.729179 -0.849872 8.527472 -21.595349 -6.971397 -8.469248 -32.109768 -7.751239 -87.776127 -154.001628 -97.057056 -0.000001 0.000001 0.000006 31.614463 -13.478072 4.460451 0.000001 0.000006 -3.015031 -5.000251 -7.998825 0.000153 -18.032347 54.365645 21.282291 -103.111370 155.776958 125.596865 0.000001 -0.000006 -0.000004 56.904481 13.681337 -7.602993 0.000003 -0.000008 3.011078 -5.000210 7.998753 -0.000168 -32.503409 -176.658758 1.329048 -179.999991 0.000005 -0.916005 137.654663 -9.288091 -3.083936 0.000002 -0.000002 0.443868 84.634971 8.828650 -7.689430 25.457153 -7.353880 0.000885 -31.763358 -177.996547 1.536034 -0.000006 -0.000005 -1.051610 -43.423744 4.209930 2.124118 -0.000005 -0.000006 -0.702079 83.740715 -7.010408 -0.119086 27.398115 7.347942 -0.250083 
49.808601 2.532867 82.841507 9.657622 -1.996830 7.462970 -2.136128 -1.150760 0.913755 -0.251206 -2.326208 1.796302 1.394088 -2.304529 1.824038 -20.013458 25.574402 -0.907362 8.549531 -21.473403 -6.989321 -8.498775 -31.930745 -7.773972 -88.118600 -154.044480 -97.431378 -0.000000 -0.000000 0.000003 31.760328 -13.415587 4.467743 -0.000000 0.000008 -3.015029 -5.000251 -7.998823 0.000149 -17.825670 53.992861 21.030383 -103.541761 155.981645 125.768112 0.000004 -0.000007 -0.000002 56.754262 13.695935 -7.591381 0.000003 -0.000007 3.011070 -5.000212 7.998755 -0.000167 -32.463158 -176.692759 1.333284 -179.999991 0.000005 -0.919995 137.822057 -9.306296 -3.079568 0.000001 -0.000002 0.440494 84.533788 8.843439 -7.701189 25.457153 -7.353886 0.000869 -31.706947 -178.046393 1.520212 -0.000004 -0.000005 -1.050670 -43.247972 4.204400 2.120099 -0.000007 -0.000006 -0.699845 83.703436 -7.009115 -0.131105 27.337486 7.348015 -0.242281 
49.790100 2.588736 82.816185 9.685469 -1.954246 7.470596 -2.156740 -1.145688 0.915189 -0.292481 -2.316451 1.798877 1.352805 -2.294742 1.826496 -20.036913 25.410607 -0.960632 8.590142 -21.349225 -7.000675 -8.529550 -31.765072 -7.800067 -88.466345 -154.073973 -97.820255 -0.000000 0.000001 0.000005 31.911358 -13.355448 4.477095 0.000001 0.000007 -3.015019 -5.000250 -7.998825 0.000153 -17.628554 53.613276 20.788719 -103.958963 156.171825 125.955559 0.000003 -0.000007 -0.000003 56.614772 13.710395 -7.583262 0.000003 -0.000008 3.011059 -5.000212 7.998752 -0.000167 -32.416430 -176.740079 1.334013 -179.999991 0.000005 -0.926005 138.014982 -9.309850 -3.072202 0.000004 -0.000001 0.439912 84.421097 8.857198 -7.703881 25.457153 -7.353897 0.000864 -31.641032 -178.097811 1.505948 -0.000005 -0.000004 -1.049920 -43.041072 4.196178 2.114908 -0.000005 -0.000007 -0.697823 83.658698 -7.007709 -0.144776 27.270094 7.348101 -0.233647 
49.747200 2.587707 82.906799 9.721908 -1.905155 7.481039 -2.179661 -1.140355 0.916796 -0.338382 -2.306200 1.801751 1.306898 -2.284457 1.829252 -20.071950 25.227737 -1.015850 8.645864 -21.213381 -7.008871 -8.564003 -31.613800 -7.833071 -88.828591 -154.087729 -98.233898 0.000001 -0.000002 0.000008 32.068042 -13.298607 4.489417 -0.000001 0.000006 -3.015019 -5.000253 -7.998823 0.000154 -17.432258 53.216282 20.546478 -104.360496 156.351322 126.136518 0.000007 -0.000007 -0.000002 56.473288 13.727681 -7.577665 0.000003 -0.000008 3.011047 -5.000212 7.998754 -0.000167 -32.369680 -176.800130 1.332473 -179.999991 0.000005 -0.934993 138.225462 -9.301184 -3.063568 0.000002 -0.000002 0.441863 84.299950 8.870048 -7.699433 25.457157 -7.353916 0.000852 -31.572703 -178.151824 1.490650 -0.000004 -0.000004 -1.049350 -42.812855 4.186167 2.109860 -0.000006 -0.000006 -0.696164 83.612116 -7.006472 -0.158165 27.194719 7.348189 -0.224009 
49.764099 2.591558 82.921410 9.765853 -1.850600 7.493798 -2.204544 -1.134819 0.918412 -0.388196 -2.295557 1.804629 1.257079 -2.273783 1.832000 -20.118339 25.029722 -1.071886 8.715497 -21.068815 -7.013778 -8.601244 -31.475083 -7.871555 -89.202353 -154.088125 -98.667198 -0.000001 -0.000002 0.000005 32.229197 -13.244342 4.504034 -0.000000 0.000009 -3.015009 -5.000251 -7.998824 0.000150 -17.239199 52.806211 20.306605 -104.749045 156.519782 126.313817 0.000004 -0.000007 -0.000002 56.331411 13.747047 -7.574216 0.000002 -0.000011 3.011052 -5.000212 7.998754 -0.000166 -32.321497 -176.871191 1.328241 -179.999991 0.000005 -0.947000 138.454109 -9.280987 -3.053390 0.000003 -0.000001 0.446055 84.170204 8.882020 -7.688330 25.457157 -7.353926 0.000837 -31.500426 -178.209239 1.475706 -0.000006 -0.000005 -1.048940 -42.563048 4.174516 2.104706 -0.000005 -0.000006 -0.694779 83.562378 -7.005334 -0.171455 27.112682 7.348281 -0.213549 
